<svg id="visual" viewBox="0 0 900 600" width="900" height="600" xmlns="http://www.w3.org/2000/svg" xmlns:xlink="http://www.w3.org/1999/xlink" version="1.1"><rect x="0" y="0" width="900" height="600" fill="#ffffff"></rect><defs><linearGradient id="grad1_0" x1="33.3%" y1="0%" x2="100%" y2="100%"><stop offset="20%" stop-color="#dddddd" stop-opacity="1"></stop><stop offset="80%" stop-color="#dddddd" stop-opacity="1"></stop></linearGradient></defs><defs><linearGradient id="grad1_1" x1="33.3%" y1="0%" x2="100%" y2="100%"><stop offset="20%" stop-color="#dddddd" stop-opacity="1"></stop><stop offset="80%" stop-color="#e8e8e8" stop-opacity="1"></stop></linearGradient></defs><defs><linearGradient id="grad1_2" x1="33.3%" y1="0%" x2="100%" y2="100%"><stop offset="20%" stop-color="#f4f4f4" stop-opacity="1"></stop><stop offset="80%" stop-color="#e8e8e8" stop-opacity="1"></stop></linearGradient></defs><defs><linearGradient id="grad1_3" x1="33.3%" y1="0%" x2="100%" y2="100%"><stop offset="20%" stop-color="#f4f4f4" stop-opacity="1"></stop><stop offset="80%" stop-color="#ffffff" stop-opacity="1"></stop></linearGradient></defs><defs><linearGradient id="grad2_0" x1="0%" y1="0%" x2="66.7%" y2="100%"><stop offset="20%" stop-color="#dddddd" stop-opacity="1"></stop><stop offset="80%" stop-color="#dddddd" stop-opacity="1"></stop></linearGradient></defs><defs><linearGradient id="grad2_1" x1="0%" y1="0%" x2="66.7%" y2="100%"><stop offset="20%" stop-color="#e8e8e8" stop-opacity="1"></stop><stop offset="80%" stop-color="#dddddd" stop-opacity="1"></stop></linearGradient></defs><defs><linearGradient id="grad2_2" x1="0%" y1="0%" x2="66.7%" y2="100%"><stop offset="20%" stop-color="#e8e8e8" stop-opacity="1"></stop><stop offset="80%" stop-color="#f4f4f4" stop-opacity="1"></stop></linearGradient></defs><defs><linearGradient id="grad2_3" x1="0%" y1="0%" x2="66.7%" y2="100%"><stop offset="20%" stop-color="#ffffff" stop-opacity="1"></stop><stop offset="80%" stop-color="#f4f4f4" stop-opacity="1"></stop></linearGradient></defs><g transform="translate(900, 0)"><path d="M0 324.5C-30.7 292 -61.4 259.4 -102.9 248.5C-144.5 237.6 -196.9 248.3 -229.5 229.5C-262 210.6 -274.8 162.2 -287.3 119C-299.9 75.8 -312.2 37.9 -324.5 0L0 0Z" fill="#f9f9f9"></path><path d="M0 243.4C-23 219 -46 194.6 -77.2 186.4C-108.4 178.2 -147.7 186.2 -172.1 172.1C-196.5 157.9 -206.1 121.6 -215.5 89.3C-224.9 56.9 -234.1 28.4 -243.4 0L0 0Z" fill="#eeeeee"></path><path d="M0 162.2C-15.3 146 -30.7 129.7 -51.5 124.3C-72.2 118.8 -98.4 124.2 -114.7 114.7C-131 105.3 -137.4 81.1 -143.7 59.5C-149.9 37.9 -156.1 19 -162.2 0L0 0Z" fill="#e3e3e3"></path><path d="M0 81.1C-7.7 73 -15.3 64.9 -25.7 62.1C-36.1 59.4 -49.2 62.1 -57.4 57.4C-65.5 52.6 -68.7 40.5 -71.8 29.8C-75 19 -78 9.5 -81.1 0L0 0Z" fill="#dddddd"></path></g><g transform="translate(0, 600)"><path d="M0 -324.5C38.1 -305.5 76.3 -286.5 111.4 -268.8C146.5 -251.2 178.5 -234.8 212.1 -212.1C245.7 -189.5 280.8 -160.6 299.8 -124.2C318.8 -87.8 321.6 -43.9 324.5 0L0 0Z" fill="#f9f9f9"></path><path d="M0 -243.4C28.6 -229.1 57.2 -214.9 83.5 -201.6C109.8 -188.4 133.9 -176.1 159.1 -159.1C184.3 -142.1 210.6 -120.4 224.8 -93.1C239.1 -65.8 241.2 -32.9 243.4 0L0 0Z" fill="#eeeeee"></path><path d="M0 -162.2C19.1 -152.8 38.1 -143.3 55.7 -134.4C73.2 -125.6 89.3 -117.4 106.1 -106.1C122.9 -94.7 140.4 -80.3 149.9 -62.1C159.4 -43.9 160.8 -21.9 162.2 0L0 0Z" fill="#e3e3e3"></path><path d="M0 -81.1C9.5 -76.4 19.1 -71.6 27.8 -67.2C36.6 -62.8 44.6 -58.7 53 -53C61.4 -47.4 70.2 -40.1 74.9 -31C79.7 -21.9 80.4 -11 81.1 0L0 0Z" fill="#dddddd"></path></g></svg>